PathFileType	4	(X/Y/Z)	/Users/itak/Documents/Research/Walk-IL/dataset/trc/00348_00011.trc
DataRate	CameraRate	NumFrames	NumMarkers	Units	OrigDataRate	OrigDataStartFrame	OrigNumFrames
100.000000	100.000000	4	56	mm	100.000000	330	660
Frame#	Time	RPSI			LPSI			STRN			T10			C7			CLAV			RBAK			LBAK			LSHO			LUPA			LAEL			LAOL			LWTS			LWPS			LFRA			LHPS			LHTS			RSHO			RUPA			RAEL			RAOL			RWTS			RWPS			RFRA			RIFD			RHTS			RHPS			RBHD			LFHD			RFHD			LBHD			LHIP			RHIP			RASI			LASI			LKNE			LTHI			LANK			LTIP			LTOE			LMT1			LMT5			LHEE			RKNE			RANK			RTIP			RTOE			RMT1			RMT5			RHEE			RTHI			L3			LIFD			*53			*54			*55			
		X1	Y1	Z1	X2	Y2	Z2	X3	Y3	Z3	X4	Y4	Z4	X5	Y5	Z5	X6	Y6	Z6	X7	Y7	Z7	X8	Y8	Z8	X9	Y9	Z9	X10	Y10	Z10	X11	Y11	Z11	X12	Y12	Z12	X13	Y13	Z13	X14	Y14	Z14	X15	Y15	Z15	X16	Y16	Z16	X17	Y17	Z17	X18	Y18	Z18	X19	Y19	Z19	X20	Y20	Z20	X21	Y21	Z21	X22	Y22	Z22	X23	Y23	Z23	X24	Y24	Z24	X25	Y25	Z25	X26	Y26	Z26	X27	Y27	Z27	X28	Y28	Z28	X29	Y29	Z29	X30	Y30	Z30	X31	Y31	Z31	X32	Y32	Z32	X33	Y33	Z33	X34	Y34	Z34	X35	Y35	Z35	X36	Y36	Z36	X37	Y37	Z37	X38	Y38	Z38	X39	Y39	Z39	X40	Y40	Z40	X41	Y41	Z41	X42	Y42	Z42	X43	Y43	Z43	X44	Y44	Z44	X45	Y45	Z45	X46	Y46	Z46	X47	Y47	Z47	X48	Y48	Z48	X49	Y49	Z49	X50	Y50	Z50	X51	Y51	Z51	X52	Y52	Z52	X53	Y53	Z53	X54	Y54	Z54	X55	Y55	Z55	X56	Y56	Z56	

331	3.3	-241.4255218505859	935.87060546875	-310.6871337890625	-310.4605102539062	947.715576171875	-420.9010925292969	-78.99091339111328	1187.188110351562	-481.5739135742188	-283.6153564453125	1121.66796875	-344.455078125	-246.8321228027344	1368.933715820312	-378.1335144042969	-115.7685241699219	1312.216186523438	-457.2203063964844	-253.7911224365234	1227.394897460938	-298.9442749023438	-312.2087097167969	1335.685668945312	-456.9771728515625	-272.1819458007812	1353.7763671875	-550.633544921875	-336.34326171875	1238.459716796875	-591.5390014648438	-361.8483581542969	1035.08349609375	-595.6359252929688	-372.9122924804688	1031.044189453125	-511.3852233886719	-308.3693237304688	776.6923828125	-596.8408813476562	-375.8264770507812	778.8876953125	-615.4706420898438	-373.578125	930.7472534179688	-600.1690673828125	-390.6822509765625	710.73876953125	-604.8002319335938	-326.2798767089844	699.0115966796875	-612.7225952148438	-114.7045135498047	1351.936157226562	-269.6331787109375	-92.35752868652344	1285.40380859375	-210.7455902099609	-55.70698547363281	1019.268432617188	-182.270263671875	-130.4180755615234	1006.5634765625	-239.4187927246094	52.72346496582031	822.303955078125	-301.650146484375	57.82729339599609	796.6621704101562	-229.8143463134766	-21.20919418334961	954.9285278320312	-191.3022918701172	106.1989212036133	659.8556518554688	-323.7705993652344	107.3809051513672	733.3565063476562	-316.1369934082031	89.23233795166016	720.6722412109375	-250.6700286865234	-149.46630859375	1574.784790039062	-333.9790649414062	-48.6033821105957	1570.797119140625	-516.427734375	-13.12462043762207	1565.678344726562	-421.9537658691406	-226.1676330566406	1580.841796875	-457.9082946777344	-285.5733337402344	906.0826416015625	-560.4197998046875	-121.4806060791016	869.89013671875	-259.5372924804688	-49.33054733276367	900.3838500976562	-346.5881042480469	-151.8039245605469	929.4525146484375	-559.5657348632812	-123.9555892944336	472.54150390625	-663.2418823242188	-168.5278167724609	604.1470336914062	-640.94873046875	-187.6289672851562	42.24599838256836	-667.4920043945312	-147.9349060058594	249.2994995117188	-679.38427734375	26.7222728729248	39.99740982055664	-693.9838256835938	-18.09546279907227	28.2296142578125	-627.3512573242188	-76.44451904296875	36.47997665405273	-726.6096801757812	-190.5959320068359	36.27004623413086	-592.2485961914062	-148.258544921875	413.9906311035156	-322.409423828125	-425.7226867675781	132.920166015625	-165.4629364013672	-213.6876373291016	310.9476318359375	-297.2923278808594	-426.490966796875	37.47234344482422	-324.681396484375	-470.7311401367188	66.93596649169922	-304.2411804199219	-391.1558532714844	50.70944595336914	-218.5653991699219	-472.2940368652344	182.4163360595703	-161.0750122070312	-81.16928863525391	658.6285400390625	-310.9743957519531	-273.154296875	999.0514526367188	-352.4100952148438	-334.7390747070312	620.233154296875	-579.2454223632812	nan	nan	nan	nan	nan	nan	nan	nan	nan	
332	3.31	-236.5033264160156	936.5140991210938	-317.3769836425781	-303.1156311035156	949.251708984375	-428.8678588867188	-70.52244567871094	1188.44384765625	-485.5838928222656	-278.3313903808594	1123.012939453125	-353.6918029785156	-241.2046661376953	1370.212768554688	-386.9112548828125	-108.0593185424805	1313.432373046875	-462.3171691894531	-250.1218872070312	1228.979736328125	-307.3507385253906	-304.2181396484375	1336.7265625	-467.6448364257812	-261.5020751953125	1355.05126953125	-560.064453125	-323.9915771484375	1239.91015625	-603.6554565429688	-348.7515258789062	1036.49365234375	-610.371337890625	-362.6797485351562	1031.742797851562	-526.581787109375	-293.9590759277344	778.3207397460938	-612.0620727539062	-360.9040832519531	780.2742919921875	-632.5328369140625	-359.8876342773438	932.093017578125	-616.0647583007812	-375.6652526855469	711.9781494140625	-622.7718505859375	-311.0585021972656	700.6640014648438	-628.9472045898438	-111.7744903564453	1353.642211914062	-275.1007690429688	-90.83403778076172	1287.279296875	-215.3905029296875	-56.64563751220703	1020.950134277344	-186.8035278320312	-130.1457977294922	1008.906860351562	-246.212646484375	50.48820877075195	818.4718017578125	-298.8409423828125	52.23400115966797	794.3463745117188	-226.2828369140625	-23.38540840148926	955.8006591796875	-193.9056549072266	99.85435485839844	654.1033325195312	-315.2101440429688	102.8562316894531	727.616455078125	-309.2653503417969	82.16935729980469	717.197265625	-244.28955078125	-144.9046478271484	1575.829467773438	-340.1516418457031	-39.98786163330078	1572.160400390625	-520.4275512695312	-6.634494304656982	1566.952270507812	-425.1612243652344	-218.8427886962891	1581.90966796875	-465.7774047851562	-275.6800842285156	908.1746215820312	-568.008544921875	-117.6512298583984	870.224365234375	-264.0016174316406	-43.88429260253906	901.6107177734375	-349.7075805664062	-141.9119262695312	930.7401123046875	-564.6444091796875	-117.846549987793	472.2919006347656	-668.1079711914062	-160.3205871582031	605.6920166015625	-647.2935791015625	-187.4490203857422	42.4426155090332	-667.583984375	-144.9778137207031	248.7606201171875	-681.4786987304688	26.66521072387695	39.50274658203125	-694.09228515625	-17.90680885314941	27.89439582824707	-627.400390625	-76.4351806640625	36.30260848999023	-726.769775390625	-190.3668975830078	36.57181930541992	-592.333984375	-133.2846221923828	414.2877807617188	-331.9691772460938	-418.6567077636719	142.5786437988281	-173.8404541015625	-200.0764465332031	313.2581481933594	-306.1867065429688	-422.4444274902344	35.96095657348633	-327.2695007324219	-464.3755798339844	71.06098175048828	-309.5794677734375	-387.0434265136719	55.86313629150391	-221.7646026611328	-463.4979553222656	193.6878814697266	-172.510498046875	-72.80242919921875	659.2478637695312	-316.7470092773438	-267.3046569824219	1000.320129394531	-360.3503723144531	-320.076416015625	621.5293579101562	-596.1615600585938	nan	nan	nan	nan	nan	nan	nan	nan	nan	
333	3.32	-231.8329010009766	937.0987548828125	-323.8427124023438	-295.8934326171875	950.7568359375	-436.6265869140625	-62.06372833251953	1189.685913085938	-489.1274719238281	-272.9693908691406	1124.333618164062	-362.9064636230469	-235.5013885498047	1371.510620117188	-395.5478515625	-100.3131103515625	1314.651489257812	-467.0581665039062	-246.5105590820312	1230.58349609375	-315.7033386230469	-296.0325622558594	1337.785888671875	-478.1795043945312	-250.5638580322266	1356.320068359375	-569.2191162109375	-311.27880859375	1241.425170898438	-615.5917358398438	-335.276123046875	1037.9931640625	-625.0194091796875	-352.16796875	1032.486572265625	-541.8291625976562	-279.1268310546875	780.0932006835938	-627.2990112304688	-345.4627075195312	781.8135375976562	-649.6461181640625	-345.7999877929688	933.5499877929688	-631.9385986328125	-360.0894470214844	713.3589477539062	-640.8439331054688	-295.3492431640625	702.4909057617188	-645.1685180664062	-109.0364074707031	1355.372314453125	-280.3124694824219	-89.56024932861328	1289.137084960938	-219.8436279296875	-57.68738555908203	1022.629211425781	-191.2388763427734	-129.7988128662109	1011.225524902344	-252.8844146728516	47.94142150878906	814.925537109375	-295.8515014648438	46.29620361328125	792.4481811523438	-222.6779479980469	-25.69406700134277	956.820556640625	-196.4047546386719	92.71559143066406	648.7854614257812	-306.4952087402344	97.71059417724609	722.2271728515625	-302.2085571289062	74.54600524902344	714.2369384765625	-237.8466491699219	-140.2938537597656	1576.98828125	-346.1383056640625	-31.30789756774902	1573.495727539062	-524.22216796875	-0.1343713253736496	1568.251220703125	-428.1878662109375	-211.3311767578125	1582.987548828125	-473.5036010742188	-265.9497680664062	910.1235961914062	-575.309326171875	-114.2119140625	870.4423217773438	-268.2471008300781	-38.79481887817383	902.7374877929688	-352.465576171875	-132.2141265869141	931.9291381835938	-569.4497680664062	-112.6081237792969	471.7529907226562	-672.2562255859375	-153.0390930175781	606.8534545898438	-653.1610107421875	-187.2953643798828	42.60337829589844	-667.6270751953125	-142.6116485595703	248.263671875	-683.2830200195312	26.61200332641602	39.27262878417969	-694.0107421875	-17.77323341369629	27.70874404907227	-627.2913208007812	-76.38416290283203	36.22168731689453	-726.7880249023438	-190.1640472412109	36.81496047973633	-592.372802734375	-118.0112915039062	414.9601440429688	-341.4103698730469	-410.8515014648438	152.612548828125	-183.0515289306641	-186.0399932861328	315.8849487304688	-315.3059692382812	-417.0165710449219	34.40578079223633	-330.2184448242188	-456.5434875488281	75.44008636474609	-315.7621154785156	-381.9526977539062	62.02888488769531	-225.5570373535156	-454.1215515136719	204.9212646484375	-184.8924407958984	-64.44712829589844	660.0267333984375	-322.2644348144531	-261.5594482421875	1001.632873535156	-368.1969909667969	-304.8860473632812	622.9550170898438	-613.2108154296875	nan	nan	nan	nan	nan	nan	nan	nan	nan	
334	3.33	-227.4089202880859	937.6012573242188	-330.1182556152344	-288.8035278320312	952.1878662109375	-444.2008361816406	-53.64875793457031	1190.896240234375	-492.1903686523438	-267.5154724121094	1125.62646484375	-372.0831909179688	-229.7074127197266	1372.834106445312	-404.0155029296875	-92.55017852783203	1315.856689453125	-471.4302062988281	-242.947021484375	1232.194702148438	-324.0175170898438	-287.6883850097656	1338.86669921875	-488.5343627929688	-239.4018096923828	1357.5537109375	-578.0581665039062	-298.234375	1242.963989257812	-627.2859497070312	-321.4550170898438	1039.546997070312	-639.52294921875	-341.3640441894531	1033.236572265625	-557.080078125	-263.8676147460938	781.9989013671875	-642.5345458984375	-329.5316467285156	783.4818725585938	-666.7598266601562	-331.3333435058594	935.0839233398438	-647.736572265625	-343.9677124023438	714.86474609375	-658.9697265625	-279.177490234375	704.4752197265625	-661.3618774414062	-106.4710311889648	1357.094848632812	-285.2670593261719	-88.5406494140625	1290.940063476562	-224.1123657226562	-58.87018203735352	1024.239868164062	-195.5063781738281	-129.3407135009766	1013.458801269531	-259.3606262207031	45.12598419189453	811.7022705078125	-292.7157592773438	40.07806396484375	790.9712524414062	-219.0430297851562	-28.11624526977539	957.9405517578125	-198.7791748046875	84.86209106445312	643.9627075195312	-297.7457275390625	91.99066162109375	717.2310791015625	-295.0496826171875	66.43596649169922	711.7923583984375	-231.416259765625	-135.6273956298828	1578.259765625	-351.9752502441406	-22.57666397094727	1574.7841796875	-527.8092651367188	6.375686645507812	1569.5673828125	-431.0374755859375	-203.6617584228516	1584.084106445312	-481.0793762207031	-256.3976745605469	911.8605346679688	-582.33984375	-111.0889053344727	870.603271484375	-272.3626098632812	-33.97594451904297	903.83203125	-354.9534912109375	-122.7367782592773	932.9754638671875	-574.014892578125	-108.1467361450195	470.9441833496094	-675.6473388671875	-146.689697265625	607.5457153320312	-658.4486083984375	-187.1685028076172	42.73177719116211	-667.6550903320312	-140.7455902099609	247.8326873779297	-684.869140625	26.58280181884766	39.18815612792969	-693.8268432617188	-17.69228744506836	27.60377883911133	-627.1017456054688	-76.31620025634766	36.18755340576172	-726.7288208007812	-189.9812316894531	37.02663421630859	-592.3973388671875	-102.5790176391602	416.1055908203125	-350.6227722167969	-402.353759765625	162.7490844726562	-193.080322265625	-171.6854400634766	318.8422241210938	-324.5426025390625	-409.9654846191406	33.02594375610352	-333.6023559570312	-447.1025085449219	79.83184051513672	-322.87744140625	-375.8367614746094	68.94871520996094	-230.0507354736328	-444.2637634277344	215.84619140625	-198.1961212158203	-56.10779190063477	661.0221557617188	-327.5076599121094	-255.950439453125	1002.993774414062	-375.9623718261719	-289.1684875488281	624.4949340820312	-630.3717041015625	nan	nan	nan	nan	nan	nan	nan	nan	nan	
